<?xml version="1.0" encoding="utf-8"?>
<svg version="1.1"
  xmlns="http://www.w3.org/2000/svg"
  xmlns:xlink="http://www.w3.org/1999/xlink" x="0px" y="0px" viewBox="0 0 300 300" style="enable-background:new 0 0 300 300;" xml:space="preserve">
  <style type="text/css">
	.st0{fill:#4B5563;}
  </style>
  <path class="st0" d="M149.1,23.3c-71.3,0-129,57.7-129,129c0,57.1,36.9,105.3,88.2,122.4c6.4,1.1,8.9-2.7,8.9-6.1
	c0-3.1-0.2-13.2-0.2-24c-32.4,6-40.8-7.9-43.4-15.2c-1.5-3.7-7.7-15.2-13.2-18.2c-4.5-2.4-11-8.4-0.2-8.5
	c10.2-0.2,17.4,9.4,19.8,13.2c11.6,19.5,30.1,14,37.6,10.6c1.1-8.4,4.5-14,8.2-17.2c-28.7-3.2-58.7-14.3-58.7-63.7
	c0-14,5-25.6,13.2-34.7c-1.3-3.2-5.8-16.4,1.3-34.2c0,0,10.8-3.4,35.5,13.2c10.3-2.9,21.3-4.4,32.2-4.4s21.9,1.5,32.2,4.4
	c24.7-16.8,35.5-13.2,35.5-13.2c7.1,17.7,2.6,31,1.3,34.2c8.2,9,13.2,20.5,13.2,34.7c0,49.5-30.1,60.5-58.8,63.7
	c4.7,4,8.7,11.8,8.7,23.9c0,17.2-0.2,31.1-0.2,35.5c0,3.4,2.4,7.4,8.9,6.1c50.9-17.1,87.9-65.5,87.9-122.4
	C278.1,81.1,220.3,23.3,149.1,23.3z"/>
</svg>
